<?xml version="1.0" standalone="no"?>
<!DOCTYPE svg PUBLIC "-//W3C//DTD SVG 20010904//EN"
 "http://www.w3.org/TR/2001/REC-SVG-20010904/DTD/svg10.dtd">
<svg version="1.0" xmlns="http://www.w3.org/2000/svg"
 width="2250.000000pt" height="2250.000000pt" viewBox="0 0 2250.000000 2250.000000"
 preserveAspectRatio="xMidYMid meet">

<g transform="translate(0.000000,2250.000000) scale(0.100000,-0.100000)"
fill="#000000" stroke="none">
<path d="M11690 20014 c-307 -20 -399 -28 -555 -45 -2267 -251 -4338 -1437
-5709 -3268 -1238 -1655 -1804 -3658 -1620 -5731 144 -1623 773 -3174 1805
-4451 351 -434 782 -867 1219 -1224 1097 -896 2434 -1503 3830 -1739 451 -76
777 -105 1260 -113 392 -6 658 4 990 38 2690 272 5076 1844 6402 4219 578
1035 918 2168 1020 3395 18 215 18 1054 0 1265 -92 1088 -350 2045 -804 2980
-904 1865 -2466 3321 -4388 4092 -760 305 -1552 489 -2420 564 -173 14 -891
27 -1030 18z m950 -2248 c1022 -106 1940 -432 2772 -985 2161 -1437 3167
-4064 2518 -6576 -595 -2304 -2507 -4058 -4855 -4454 -377 -64 -690 -85 -1128
-78 -415 7 -697 36 -1062 108 -1367 272 -2587 998 -3486 2074 -705 845 -1170
1885 -1333 2982 -49 328 -60 492 -61 883 0 383 7 502 51 830 119 890 456 1785
956 2534 500 749 1167 1386 1930 1844 826 495 1721 777 2708 852 178 13 809 4
990 -14z"/>
<path d="M11695 17263 c-1606 -103 -3100 -913 -4070 -2204 -502 -669 -843
-1432 -1004 -2246 -128 -645 -139 -1353 -31 -1998 174 -1042 629 -1990 1329
-2775 112 -126 257 -274 332 -341 l66 -59 22 111 c214 1072 908 2023 1868
2561 1100 616 2432 645 3563 78 800 -401 1446 -1092 1794 -1918 97 -232 210
-607 232 -773 4 -27 10 -52 14 -54 13 -8 409 404 521 540 406 497 703 1007
919 1575 263 692 387 1474 352 2208 -7 130 -19 298 -27 372 -114 1003 -480
1925 -1081 2725 -296 395 -708 806 -1099 1098 -864 645 -1848 1014 -2924 1097
-121 9 -650 11 -776 3z m722 -2267 c350 -74 642 -225 895 -465 280 -266 463
-597 538 -977 28 -138 38 -406 21 -552 -110 -941 -935 -1649 -1876 -1609 -469
20 -891 204 -1219 533 -614 614 -709 1569 -227 2294 286 431 748 720 1271 796
151 21 444 12 597 -20z"/>
</g>
</svg>
